<svg width="18" height="18" viewBox="0 0 18 18" fill="none" xmlns="http://www.w3.org/2000/svg">
  <path fill-rule="evenodd" clip-rule="evenodd" d="M0.439335 0.439335C1.02513 -0.146445 1.97487 -0.146445 2.56066 0.439335L9 6.87868L15.4393 0.439335C16.0251 -0.146445 16.9749 -0.146445 17.5606 0.439335C18.1464 1.02513 18.1464 1.97487 17.5606 2.56066L11.1213 9L17.5606 15.4393C18.1464 16.0251 18.1464 16.9749 17.5606 17.5606C16.9749 18.1464 16.0251 18.1464 15.4393 17.5606L9 11.1213L2.56066 17.5606C1.97487 18.1464 1.02513 18.1464 0.439335 17.5606C-0.146445 16.9749 -0.146445 16.0251 0.439335 15.4393L6.87868 9L0.439335 2.56066C-0.146445 1.97487 -0.146445 1.02513 0.439335 0.439335Z" fill="black"/>
</svg>
