<svg
  width="10"
  height="8"
  viewBox="0 0 10 8"
  fill="none"
  xmlns="http://www.w3.org/2000/svg"
>
  <path
    d="M4.6126 7.7696C4.65245 7.84066 4.70577 7.89875 4.76797 7.93889C4.83017 7.97903 4.89938 8 4.96965 8C5.03991 8 5.10913 7.97903 5.17133 7.93889C5.23353 7.89875 5.28685 7.84066 5.32669 7.7696L9.23596 0.836743C9.28121 0.756778 9.30774 0.663118 9.31268 0.565938C9.31762 0.468757 9.30077 0.371773 9.26397 0.285524C9.22716 0.199274 9.17181 0.127057 9.10392 0.0767191C9.03604 0.0263811 8.95822 -0.000152706 8.87891 6.61103e-07H1.06039C0.981265 0.000401918 0.903729 0.027277 0.836117 0.0777355C0.768505 0.128194 0.713376 0.200327 0.676657 0.286377C0.639939 0.372427 0.623021 0.469139 0.627722 0.566112C0.632424 0.663084 0.658567 0.756648 0.703341 0.836743L4.6126 7.7696Z"
    fill="black"
  />
</svg>
